<?xml version="1.0" encoding="UTF-8" standalone="no"?>
<!-- Created with Inkscape (http://www.inkscape.org/) -->

<svg
   width="1024"
   height="1024"
   viewBox="0 0 1024 1024"
   version="1.1"
   id="svg8"
   inkscape:version="1.3 (0e150ed6c4, 2023-07-21)"
   sodipodi:docname="Orelega Shavian.svg"
   xml:space="preserve"
   xmlns:inkscape="http://www.inkscape.org/namespaces/inkscape"
   xmlns:sodipodi="http://sodipodi.sourceforge.net/DTD/sodipodi-0.dtd"
   xmlns:xlink="http://www.w3.org/1999/xlink"
   xmlns="http://www.w3.org/2000/svg"
   xmlns:svg="http://www.w3.org/2000/svg"
   xmlns:rdf="http://www.w3.org/1999/02/22-rdf-syntax-ns#"
   xmlns:cc="http://creativecommons.org/ns#"
   xmlns:dc="http://purl.org/dc/elements/1.1/"><defs
     id="defs2"><rect
       x="7883.7393"
       y="-285.64273"
       width="845.50247"
       height="1109.6427"
       id="rect61" /></defs><sodipodi:namedview
     id="base"
     pagecolor="#ffffff"
     bordercolor="#666666"
     borderopacity="1.0"
     inkscape:pageopacity="0.0"
     inkscape:pageshadow="2"
     inkscape:zoom="0.49509874"
     inkscape:cx="-3606.3513"
     inkscape:cy="313.06886"
     inkscape:document-units="px"
     inkscape:current-layer="layer3"
     showgrid="true"
     units="px"
     inkscape:pagecheckerboard="true"
     borderlayer="true"
     gridtolerance="10"
     inkscape:snap-smooth-nodes="true"
     inkscape:snap-text-baseline="true"
     inkscape:snap-page="true"
     showguides="true"
     inkscape:guide-bbox="true"
     inkscape:object-nodes="true"
     inkscape:object-paths="false"
     inkscape:snap-global="true"
     inkscape:showpageshadow="0"
     inkscape:deskcolor="#d1d1d1"
     inkscape:window-width="1920"
     inkscape:window-height="1057"
     inkscape:window-x="-8"
     inkscape:window-y="-8"
     inkscape:window-maximized="1"><inkscape:grid
       type="xygrid"
       id="grid4131"
       empspacing="4"
       spacingx="10"
       spacingy="10"
       color="#ffffff"
       opacity="0.2627451"
       empcolor="#ffffff"
       empopacity="0.62352941"
       originx="0"
       originy="0"
       units="px"
       visible="true" /><sodipodi:guide
       position="15825.17,820.00003"
       orientation="0,1"
       id="guide979"
       inkscape:locked="false" /><sodipodi:guide
       position="8940,200"
       orientation="0,1"
       id="guide983"
       inkscape:locked="false" /><sodipodi:guide
       position="11680,120"
       orientation="0,1"
       id="guide985"
       inkscape:locked="false" /><sodipodi:guide
       position="0,40"
       orientation="0,1"
       id="guide987"
       inkscape:locked="false" /><sodipodi:guide
       position="14960,820.00003"
       orientation="0,1"
       id="guide1028"
       inkscape:locked="false" /><sodipodi:guide
       position="0,0"
       orientation="0,1"
       id="guide1030"
       inkscape:locked="false" /><sodipodi:guide
       position="17640,660"
       orientation="0,1"
       id="guide1122"
       inkscape:locked="false" /><sodipodi:guide
       position="4810,860"
       orientation="0,1"
       id="guide1263"
       inkscape:locked="false" /><sodipodi:guide
       position="-5270,430"
       orientation="0,1"
       id="guide1490"
       inkscape:locked="false" /><sodipodi:guide
       position="-3607.6677,1036.1398"
       orientation="0.70710678,-0.70710678"
       id="guide2"
       inkscape:locked="false" /></sodipodi:namedview><metadata
     id="metadata5"><rdf:RDF><cc:Work
         rdf:about=""><dc:format>image/svg+xml</dc:format><dc:type
           rdf:resource="http://purl.org/dc/dcmitype/StillImage" /></cc:Work></rdf:RDF></metadata><g
     inkscape:groupmode="layer"
     id="layer3"
     inkscape:label="Orelega upper"
     style="display:inline;opacity:1"
     transform="translate(0,24)"><use
       x="0"
       y="0"
       xlink:href="#g47"
       id="use47"
       transform="matrix(1,0,0,-1,0,1140)" /><use
       x="0"
       y="0"
       xlink:href="#g10"
       id="use10"
       transform="matrix(-1,0,0,1,-4719.9976,0)" /><g
       id="g10"><path
         id="path10"
         style="display:inline;vector-effect:none;fill:#000000;fill-opacity:1;fill-rule:nonzero;stroke:none;stroke-width:9.14286;stroke-linecap:round;stroke-linejoin:round;stroke-miterlimit:4;stroke-dasharray:none;stroke-dashoffset:0;stroke-opacity:1;paint-order:stroke fill markers"
         d="m -2360,166 v 80 c 56.7274,0.50137 80,40 80,160 0,66.63427 -19.104,130.40457 -80,200 -70,80.00001 -120,119 -170,119 -20,0 -41.2624,-3.00689 -60,-10 v 81 c 18.6837,7.13566 40,9 60,9 78.499,0 140,-28.99999 230,-99 120.4785,-93.70553 168.7783,-186.77649 168.7783,-300 0,-179.90285 -96.46,-240.00058 -228.7783,-240 z"
         sodipodi:nodetypes="ccsssccsssc" /></g><path
       id="path941-5"
       style="display:inline;vector-effect:none;fill:#000000;fill-opacity:1;fill-rule:nonzero;stroke:none;stroke-width:9.14286;stroke-linecap:round;stroke-linejoin:round;stroke-miterlimit:4;stroke-dasharray:none;stroke-dashoffset:0;stroke-opacity:1;paint-order:stroke fill markers"
       d="m -5880,180 v 80 h 50 v 46 c 0,20 3.0271,51.62811 8,71 -17.2092,-29.80718 -65.1893,-47 -103.416,-47 -132.3176,0 -219.584,94.94539 -219.584,240 0,145.05462 105.8367,239.99941 238.1543,240 108.7151,4.8e-4 170.2955,-51.75069 209.6992,-120 l -64.9316,-43.83984 C -5792.0308,702.44262 -5824.1008,730 -5889.4531,730 c -56.7298,0 -106.9746,-38.85726 -106.9746,-160 0,-121.14273 44.7002,-156.98997 101.4277,-156.99023 45,-2.1e-4 65,27.94644 65,58.89615 v 28.55111 h 140 V 180 Z"
       sodipodi:nodetypes="cccscsssccsssscccc" /><circle
       id="circle991-15"
       style="display:inline;vector-effect:none;fill:#000000;fill-opacity:1;fill-rule:nonzero;stroke:none;stroke-width:9.14286;stroke-linecap:round;stroke-linejoin:round;stroke-miterlimit:4;stroke-dasharray:none;stroke-dashoffset:0;stroke-opacity:1;paint-order:stroke fill markers"
       cx="-5766.4282"
       cy="-650"
       r="80"
       transform="scale(1,-1)" /><circle
       r="80"
       cy="-249.99997"
       cx="3440"
       id="circle1237-3"
       style="display:inline;vector-effect:none;fill:#000000;fill-opacity:1;fill-rule:nonzero;stroke:none;stroke-width:9.14286;stroke-linecap:round;stroke-linejoin:round;stroke-miterlimit:4;stroke-dasharray:none;stroke-dashoffset:0;stroke-opacity:1;paint-order:stroke fill markers"
       transform="scale(-1)" /><path
       id="path1212-6"
       style="display:inline;vector-effect:none;fill:#000000;fill-opacity:1;fill-rule:nonzero;stroke:none;stroke-width:9.14286;stroke-linecap:round;stroke-linejoin:round;stroke-miterlimit:4;stroke-dasharray:none;stroke-dashoffset:0;stroke-opacity:1;paint-order:stroke fill markers"
       d="M -6366.4277,179.99997 V 300 l -21.5704,-0.21587 c -14.4875,76.89762 -22.7856,141.36904 -22.5937,209.65337 L -6410,720 h -110 v 80 h 300 v -80 h -50 V 179.99997 Z"
       sodipodi:nodetypes="cccscccccccc" /><circle
       id="circle991-6-55"
       style="display:inline;vector-effect:none;fill:#000000;fill-opacity:1;fill-rule:nonzero;stroke:none;stroke-width:9.14286;stroke-linecap:round;stroke-linejoin:round;stroke-miterlimit:4;stroke-dasharray:none;stroke-dashoffset:0;stroke-opacity:1;paint-order:stroke fill markers"
       cx="360"
       cy="-6527.9277"
       r="80"
       transform="matrix(0,1,1,0,0,0)" /><path
       style="display:inline;vector-effect:none;fill:#000000;fill-opacity:1;fill-rule:nonzero;stroke:none;stroke-width:8;stroke-linecap:round;stroke-linejoin:round;stroke-miterlimit:4;stroke-dasharray:none;stroke-dashoffset:0;stroke-opacity:1;paint-order:stroke fill markers"
       d="m -6605.2023,380.70553 c 15.0781,56.2722 56.0159,69.2945 103.0117,69.2945 46.9958,0 99.0617,-43.9761 121.662,-77.7955 L -6366.4277,320 V 179.99997 c -2.2446,60.11743 -4.2529,105.49423 -49.2379,150.47926 -32.2626,29.5208 -62.4556,44.5475 -112.2626,29.5208"
       id="path1071-80"
       inkscape:connector-curvature="0"
       sodipodi:nodetypes="csccccc" /><path
       style="display:inline;vector-effect:none;fill:#000000;fill-opacity:1;fill-rule:nonzero;stroke:none;stroke-width:8;stroke-linecap:round;stroke-linejoin:round;stroke-miterlimit:4;stroke-dasharray:none;stroke-dashoffset:0;stroke-opacity:1;paint-order:stroke fill markers"
       id="circle1237-6-7"
       sodipodi:type="arc"
       sodipodi:cx="-4260"
       sodipodi:cy="310"
       sodipodi:rx="70"
       sodipodi:ry="70"
       sodipodi:start="0.17453293"
       sodipodi:end="4.712389"
       sodipodi:arc-type="slice"
       d="m -4191.0635,322.15537 a 70,70 0 0 1 -77.063,57.37131 70,70 0 0 1 -61.7551,-73.59682 A 70,70 0 0 1 -4260,240 v 70 z" /><path
       id="circle1266-2"
       style="display:inline;vector-effect:none;fill:#000000;fill-opacity:1;fill-rule:nonzero;stroke:none;stroke-width:8;stroke-linecap:round;stroke-linejoin:round;stroke-miterlimit:4;stroke-dasharray:none;stroke-dashoffset:0;stroke-opacity:1;paint-order:stroke fill markers"
       sodipodi:type="arc"
       sodipodi:cx="-4500"
       sodipodi:cy="670"
       sodipodi:rx="70"
       sodipodi:ry="70"
       sodipodi:start="3.3161256"
       sodipodi:end="1.5707963"
       sodipodi:arc-type="slice"
       d="m -4568.9365,657.84463 a 70,70 0 0 1 77.063,-57.37131 70,70 0 0 1 61.7551,73.59682 A 70,70 0 0 1 -4500,740 v -70 z" /><path
       style="display:inline;vector-effect:none;fill:#000000;fill-opacity:1;fill-rule:nonzero;stroke:none;stroke-width:8;stroke-linecap:round;stroke-linejoin:round;stroke-miterlimit:4;stroke-dasharray:none;stroke-dashoffset:0;stroke-opacity:1;paint-order:stroke fill markers"
       d="M -4568.9365,657.84463 C -4582.0186,732.03672 -4515.7079,810 -4389.397,810 -4272.8565,810 -4180,754.99624 -4180,620 c 0,-199.18559 -250,-199.80571 -250,-300 0,-50.57667 27.01,-80 70,-80 67.1361,0 92.5962,28.0112 100,70 l 68.9365,12.15537 C -4180.8791,264.39696 -4241.4308,170 -4360.603,170 -4483.5655,170 -4560,230 -4560,350 c 0,191.20789 240,194.31437 240,290 0,67.71524 -37.1361,90 -80,90 -40,0 -85.5701,-6.1468 -100,-60 z"
       id="path1287-0"
       inkscape:connector-curvature="0"
       sodipodi:nodetypes="cssssccsssscc" /><text
       xml:space="preserve"
       style="font-style:normal;font-variant:normal;font-weight:bold;font-stretch:normal;font-size:144px;line-height:1;font-family:Whitney;-inkscape-font-specification:'Whitney Bold';font-variant-ligatures:normal;font-variant-caps:normal;font-variant-numeric:normal;font-feature-settings:normal;text-align:start;writing-mode:lr-tb;text-anchor:start;vector-effect:none;fill:#000000;fill-opacity:1;fill-rule:nonzero;stroke:none;stroke-width:8;stroke-linecap:round;stroke-linejoin:round;stroke-miterlimit:4;stroke-dasharray:none;stroke-dashoffset:0;stroke-opacity:1;paint-order:stroke fill markers"
       x="1716.1432"
       y="88.193626"
       id="text1537" /><path
       id="path45"
       style="display:inline;vector-effect:none;fill:#000000;fill-opacity:1;fill-rule:nonzero;stroke:none;stroke-width:9.14286;stroke-linecap:round;stroke-linejoin:round;stroke-miterlimit:4;stroke-dasharray:none;stroke-dashoffset:0;stroke-opacity:1;paint-order:stroke fill markers"
       d="M -4978.5703 160 L -5038.5703 200 C -4929.9995 262.68337 -4858.9902 381.28546 -4858.9902 536 C -4858.9902 685.9997 -4893.3982 729.99962 -4949.4941 730 C -5006.222 729.99975 -5040.5059 701.14262 -5040.5059 580 C -5040.5059 476.0002 -5028.407 429.02974 -4950.5059 406 L -4970.5059 356 C -5100.5597 366.73719 -5189.0762 446.00026 -5189.0762 580 C -5189.0762 725.05447 -5081.8118 809.99942 -4949.4941 810 C -4805.9014 809.99922 -4708.5703 729.9996 -4708.5703 530 C -4708.5703 366.00032 -4807.7418 251.05194 -4978.5703 160 z " /><path
       id="rect1675-1"
       style="display:inline;opacity:1;vector-effect:none;fill:#000000;fill-opacity:1;fill-rule:nonzero;stroke:none;stroke-width:8;stroke-linecap:round;stroke-linejoin:round;stroke-miterlimit:4;stroke-dasharray:none;stroke-dashoffset:0;stroke-opacity:1;paint-order:stroke fill markers"
       d="m -6952,169.99997 c 118.9898,0 162,66.69602 162,175.25781 V 720 h 50 v 80 h -280 v -80 h 90 V 435.99997 c 0,-72.78394 50,-90.79351 50,-130 0,-34.06029 -20.3876,-56 -44.3242,-56 -15.4404,0 -25.7138,10.00002 -25.6758,20 l -50,-10.00008 -72.5046,-33.80946 c 15.8233,-33.93329 55.5061,-56.19046 120.5046,-56.19046 z"
       sodipodi:nodetypes="ssccccccssscccs" /><path
       style="display:inline;opacity:1;vector-effect:none;fill:#000000;fill-opacity:1;fill-rule:nonzero;stroke:none;stroke-width:9.14286;stroke-linecap:round;stroke-linejoin:round;stroke-miterlimit:4;stroke-dasharray:none;stroke-dashoffset:0;stroke-opacity:1;paint-order:stroke fill markers"
       id="circle1686-2"
       sodipodi:type="arc"
       sodipodi:cx="7000"
       sodipodi:cy="259.99991"
       sodipodi:rx="80"
       sodipodi:ry="80"
       sodipodi:start="5.846853"
       sodipodi:end="4.712389"
       sodipodi:arc-type="slice"
       d="m 7072.5046,226.19045 a 80,80 0 0 1 -19.7569,93.95664 80,80 0 0 1 -95.7317,7.32413 80,80 0 0 1 -33.82,-89.85763 80,80 0 0 1 76.804,-57.61368 v 80 z"
       transform="scale(-1,1)" /><path
       id="path43"
       style="display:inline;opacity:1;vector-effect:none;fill:#000000;fill-opacity:1;fill-rule:nonzero;stroke:none;stroke-width:8;stroke-linecap:round;stroke-linejoin:round;stroke-miterlimit:4;stroke-dasharray:none;stroke-dashoffset:0;stroke-opacity:1;paint-order:stroke fill markers"
       d="m -5510,180 v 80 h 90 v 284 c 0,81.71021 23.9301,107.57506 23.9301,141.42571 0,34.67722 -18.7566,50.97915 -42.6932,50.97915 -15.4404,0 -29.859,-16.40489 -29.821,-26.40486 l -41.4159,-9.99994 -77.2732,20.70479 C -5575.0061,766.48666 -5526.9984,810 -5462,810 c 118.9897,0 182,-66.69613 182,-175.25781 V 180 Z"
       sodipodi:nodetypes="cccssscccsscc" /><path
       style="display:inline;opacity:1;vector-effect:none;fill:#000000;fill-opacity:1;fill-rule:nonzero;stroke:none;stroke-width:9.14286;stroke-linecap:round;stroke-linejoin:round;stroke-miterlimit:4;stroke-dasharray:none;stroke-dashoffset:0;stroke-opacity:1;paint-order:stroke fill markers"
       id="path44"
       sodipodi:type="arc"
       sodipodi:cx="5510"
       sodipodi:cy="-700.00006"
       sodipodi:rx="80"
       sodipodi:ry="80"
       sodipodi:start="6.0213859"
       sodipodi:end="4.712389"
       sodipodi:arc-type="slice"
       d="m 5587.2741,-720.70559 a 80,80 0 0 1 -32.8285,87.2231 80,80 0 0 1 -93.1465,-3.0493 80,80 0 0 1 -27.0535,-89.18343 80,80 0 0 1 75.7544,-54.28484 v 80 z"
       transform="scale(-1)" /><path
       id="circle46"
       style="display:inline;vector-effect:none;fill:#000000;fill-opacity:1;fill-rule:nonzero;stroke:none;stroke-width:9.14286;stroke-linecap:round;stroke-linejoin:round;stroke-miterlimit:4;stroke-dasharray:none;stroke-dashoffset:0;stroke-opacity:1;paint-order:stroke fill markers"
       transform="scale(1,-1)"
       sodipodi:type="arc"
       sodipodi:cx="-3740"
       sodipodi:cy="-700"
       sodipodi:rx="80"
       sodipodi:ry="80"
       sodipodi:start="5.5850536"
       sodipodi:end="4.712389"
       sodipodi:arc-type="arc"
       d="m -3678.7164,-751.42301 a 80,80 0 0 1 2.1847,100.12392 80,80 0 0 1 -97.2778,23.80371 80,80 0 0 1 -44.2942,-89.81979 A 80,80 0 0 1 -3740,-780"
       sodipodi:open="true" /><path
       id="path1"
       style="display:inline;vector-effect:none;fill:#000000;fill-opacity:1;fill-rule:nonzero;stroke:none;stroke-width:9.14286;stroke-linecap:round;stroke-linejoin:round;stroke-miterlimit:4;stroke-dasharray:none;stroke-dashoffset:0;stroke-opacity:1;paint-order:stroke fill markers"
       d="m -3279.0762,730 c -60.5039,-2.5e-4 -80.5039,-34 -80.5039,-124 0,-165.82344 95.0489,-301.91075 199.5801,-406 l -60,-40 c -109.123,80.95117 -140.0191,88.25095 -163.2277,74.85148 L -3440,249.99997 v 80 c 25.5213,0 47.1797,-3.47819 110,-43.99997 -104.8661,91.27797 -180,174.79104 -180,314 0,156 90.4199,210 230.9238,210 69.4961,0 120.1596,-22.08545 150.7796,-58.577 L -3189.5801,700 c -18.4321,10.64177 -54.9602,30.00014 -89.4961,30 z"
       sodipodi:nodetypes="ssccccccssccs" /><path
       id="path2"
       style="display:inline;vector-effect:none;fill:#000000;fill-opacity:1;fill-rule:nonzero;stroke:none;stroke-width:9.14286;stroke-linecap:round;stroke-linejoin:round;stroke-miterlimit:4;stroke-dasharray:none;stroke-dashoffset:0;stroke-opacity:1;paint-order:stroke fill markers"
       transform="scale(1,-1)"
       sodipodi:type="arc"
       sodipodi:cx="-3189.5801"
       sodipodi:cy="-700"
       sodipodi:rx="80"
       sodipodi:ry="80"
       sodipodi:start="5.5850536"
       sodipodi:end="4.712389"
       sodipodi:arc-type="arc"
       d="m -3128.2965,-751.42301 a 80,80 0 0 1 2.1847,100.12392 80,80 0 0 1 -97.2777,23.80371 80,80 0 0 1 -44.2943,-89.81979 80,80 0 0 1 78.1037,-62.68483"
       sodipodi:open="true" /><path
       d="m -3829.496,730.00001 c -60.5039,-2.5e-4 -80.5039,-34 -80.5039,-124 0,-165.82344 95.0489,-301.91075 199.5801,-406 l -60,-40 c -184.5307,131.96039 -290,256.61233 -290,440 0,156 90.4199,210 230.9238,210 69.4961,0 120.1596,-22.08545 150.7796,-58.577 l -61.2835,-51.423 c -18.4321,10.64177 -54.9602,30.00014 -89.4961,30 z"
       style="display:inline;vector-effect:none;fill:#000000;fill-opacity:1;fill-rule:nonzero;stroke:none;stroke-width:9.14286;stroke-linecap:round;stroke-linejoin:round;stroke-miterlimit:4;stroke-dasharray:none;stroke-dashoffset:0;stroke-opacity:1;paint-order:stroke fill markers"
       id="path1-1"
       sodipodi:nodetypes="ssccssccs" /><path
       id="path6"
       style="vector-effect:none;fill:#000000;fill-opacity:1;fill-rule:nonzero;stroke:none;stroke-width:9.14286;stroke-linecap:round;stroke-linejoin:round;stroke-miterlimit:4;stroke-dasharray:none;stroke-dashoffset:0;stroke-opacity:1;paint-order:stroke fill markers"
       d="m -3040,180 v 80 h 40 l 130,460 h -60 v 80 h 240 v -80 h -40 l -152.6094,-540 z"
       sodipodi:nodetypes="ccccccccccc" /><use
       x="0"
       y="0"
       xlink:href="#g26"
       id="use26"
       transform="matrix(-1,0,0,1,5640.0024,0)" /><g
       id="g26"
       transform="matrix(1,0,0,-1,5180,1140)"><path
         id="path26"
         style="display:inline;vector-effect:none;fill:#000000;fill-opacity:1;fill-rule:nonzero;stroke:none;stroke-width:9.14286;stroke-linecap:round;stroke-linejoin:round;stroke-miterlimit:4;stroke-dasharray:none;stroke-dashoffset:0;stroke-opacity:1;paint-order:stroke fill markers"
         d="m -2360,166 v 80 c 56.7274,0.50137 80,40 80,160 0,66.63427 -19.104,130.40457 -80,200 -70,80.00001 -120,119 -170,119 -20,0 -41.2624,-3.00689 -60,-10 v 81 c 18.6837,7.13566 40,9 60,9 78.499,0 140,-28.99999 230,-99 120.4785,-93.70553 168.7783,-186.77649 168.7783,-300 0,-179.90285 -96.46,-240.00058 -228.7783,-240 z"
         sodipodi:nodetypes="ccsssccsssc" /></g><path
       id="path27"
       style="display:inline;vector-effect:none;fill:#000000;fill-opacity:1;fill-rule:nonzero;stroke:none;stroke-width:9.14286;stroke-linecap:round;stroke-linejoin:round;stroke-miterlimit:4;stroke-dasharray:none;stroke-dashoffset:0;stroke-opacity:1;paint-order:stroke fill markers"
       d="m -734.58203,330 c -108.71499,-4.8e-4 -170.29556,51.75076 -209.69922,120 l 64.93164,43.83984 C -849.39694,437.55744 -817.32684,410 -751.97461,410 -695.24487,410 -645,448.85738 -645,570 c 0,121.14261 -44.70029,156.98997 -101.42773,156.99023 -44.99996,2.1e-4 -65,-27.9468 -65,-58.89648 v -28.55078 h -140 V 880 H -1000 v 80 h 238.57227 v -80 h -50 v -46 c 0,-19.99998 -3.02711,-51.62813 -8,-71 17.20918,29.80715 65.18935,47 103.41601,47 132.31747,0 219.58399,-94.94554 219.58399,-240 0,-145.05447 -105.83683,-239.99941 -238.1543,-240 z"
       sodipodi:nodetypes="sccssssccccccccscsss" /><circle
       id="circle27"
       style="display:inline;vector-effect:none;fill:#000000;fill-opacity:1;fill-rule:nonzero;stroke:none;stroke-width:9.14286;stroke-linecap:round;stroke-linejoin:round;stroke-miterlimit:4;stroke-dasharray:none;stroke-dashoffset:0;stroke-opacity:1;paint-order:stroke fill markers"
       cx="875"
       cy="490"
       r="80"
       transform="scale(-1,1)" /><circle
       r="80"
       cy="890.00006"
       cx="1990.4199"
       id="circle28"
       style="display:inline;vector-effect:none;fill:#000000;fill-opacity:1;fill-rule:nonzero;stroke:none;stroke-width:9.14286;stroke-linecap:round;stroke-linejoin:round;stroke-miterlimit:4;stroke-dasharray:none;stroke-dashoffset:0;stroke-opacity:1;paint-order:stroke fill markers" /><path
       id="path28"
       style="display:inline;vector-effect:none;fill:#000000;fill-opacity:1;fill-rule:nonzero;stroke:none;stroke-width:9.14286;stroke-linecap:round;stroke-linejoin:round;stroke-miterlimit:4;stroke-dasharray:none;stroke-dashoffset:0;stroke-opacity:1;paint-order:stroke fill markers"
       d="m -1440,340 v 80 h 50 v 540 h 96.4277 V 840 l 21.5703,0.2168 c 14.4875,-76.89755 22.7857,-141.37004 22.5938,-209.6543 L -1250,340 Z" /><circle
       id="circle29"
       style="display:inline;vector-effect:none;fill:#000000;fill-opacity:1;fill-rule:nonzero;stroke:none;stroke-width:9.14286;stroke-linecap:round;stroke-linejoin:round;stroke-miterlimit:4;stroke-dasharray:none;stroke-dashoffset:0;stroke-opacity:1;paint-order:stroke fill markers"
       cx="-780"
       cy="1132.0723"
       r="80"
       transform="matrix(0,-1,-1,0,0,0)" /><path
       style="display:inline;vector-effect:none;fill:#000000;fill-opacity:1;fill-rule:nonzero;stroke:none;stroke-width:8;stroke-linecap:round;stroke-linejoin:round;stroke-miterlimit:4;stroke-dasharray:none;stroke-dashoffset:0;stroke-opacity:1;paint-order:stroke fill markers"
       d="m -1054.7977,759.29447 c -15.0781,-56.2722 -56.0159,-69.2945 -103.0117,-69.2945 -46.9958,0 -99.0617,43.9761 -121.662,77.7955 L -1293.5723,820 v 140.00003 c 2.2446,-60.11743 4.2529,-105.49423 49.2379,-150.47926 32.2626,-29.5208 62.4556,-44.5475 112.2626,-29.5208"
       id="path29"
       inkscape:connector-curvature="0"
       sodipodi:nodetypes="csccccc" /><path
       style="display:inline;vector-effect:none;fill:#000000;fill-opacity:1;fill-rule:nonzero;stroke:none;stroke-width:8;stroke-linecap:round;stroke-linejoin:round;stroke-miterlimit:4;stroke-dasharray:none;stroke-dashoffset:0;stroke-opacity:1;paint-order:stroke fill markers"
       id="path30"
       sodipodi:type="arc"
       sodipodi:cx="920"
       sodipodi:cy="-830"
       sodipodi:rx="70"
       sodipodi:ry="70"
       sodipodi:start="0.17453293"
       sodipodi:end="4.712389"
       sodipodi:arc-type="slice"
       d="M 988.93654,-817.84463 A 70,70 0 0 1 911.8735,-760.47332 70,70 0 0 1 850.11843,-834.07014 70,70 0 0 1 920,-900 v 70 z"
       transform="scale(1,-1)" /><path
       id="path31"
       style="display:inline;vector-effect:none;fill:#000000;fill-opacity:1;fill-rule:nonzero;stroke:none;stroke-width:8;stroke-linecap:round;stroke-linejoin:round;stroke-miterlimit:4;stroke-dasharray:none;stroke-dashoffset:0;stroke-opacity:1;paint-order:stroke fill markers"
       sodipodi:type="arc"
       sodipodi:cx="680"
       sodipodi:cy="-470"
       sodipodi:rx="70"
       sodipodi:ry="70"
       sodipodi:start="3.3161256"
       sodipodi:end="1.5707963"
       sodipodi:arc-type="slice"
       d="m 611.06346,-482.15537 a 70,70 0 0 1 77.06304,-57.37131 70,70 0 0 1 61.75507,73.59682 A 70,70 0 0 1 680,-400 v -70 z"
       transform="scale(1,-1)" /><path
       style="display:inline;vector-effect:none;fill:#000000;fill-opacity:1;fill-rule:nonzero;stroke:none;stroke-width:8;stroke-linecap:round;stroke-linejoin:round;stroke-miterlimit:4;stroke-dasharray:none;stroke-dashoffset:0;stroke-opacity:1;paint-order:stroke fill markers"
       d="M 611.0635,482.15537 C 597.9814,407.96328 664.2921,330 790.603,330 907.1435,330 1000,385.00376 1000,520 c 0,199.18559 -250,199.80571 -250,300 0,50.57667 27.01,80 70,80 67.1361,0 92.5962,-28.0112 100,-70 l 68.9365,-12.15537 C 999.1209,875.60304 938.5692,970 819.397,970 696.4345,970 620,910 620,790 620,598.79211 860,595.68563 860,500 c 0,-67.71524 -37.1361,-90 -80,-90 -40,0 -85.5701,6.1468 -100,60 z"
       id="path32"
       inkscape:connector-curvature="0"
       sodipodi:nodetypes="cssssccsssscc" /><path
       id="path33"
       style="display:inline;vector-effect:none;fill:#000000;fill-opacity:1;fill-rule:nonzero;stroke:none;stroke-width:9.14286;stroke-linecap:round;stroke-linejoin:round;stroke-miterlimit:4;stroke-dasharray:none;stroke-dashoffset:0;stroke-opacity:1;paint-order:stroke fill markers"
       d="m 270,980 60,-40 C 221.4292,877.31663 150.4199,758.71454 150.4199,604 c 0,-149.9997 34.408,-193.99962 90.5039,-194 56.7279,2.5e-4 91.0118,28.85738 91.0118,150 0,103.9998 -12.0989,150.97026 -90,174 l 20,50 C 391.9894,773.26281 480.5059,693.99974 480.5059,560 480.5059,414.94553 373.2415,330.00058 240.9238,330 97.3311,330.00078 0,410.0004 0,610 0,773.99968 99.1715,888.94806 270,980 Z" /><path
       id="path34"
       style="display:inline;opacity:1;vector-effect:none;fill:#000000;fill-opacity:1;fill-rule:nonzero;stroke:none;stroke-width:8;stroke-linecap:round;stroke-linejoin:round;stroke-miterlimit:4;stroke-dasharray:none;stroke-dashoffset:0;stroke-opacity:1;paint-order:stroke fill markers"
       d="m -1920,340 v 80 h 50 V 794.74219 C -1870,903.30387 -1826.9897,970 -1708,970 c 64.9984,0 104.6806,-22.25815 120.5039,-56.19141 L -1660,880 l -50,-10 c 0.038,9.99997 -10.2354,20 -25.6758,20 -23.9366,0 -44.3242,-21.93974 -44.3242,-56 0,-39.20645 50,-57.21613 50,-130 V 340 Z" /><path
       style="display:inline;opacity:1;vector-effect:none;fill:#000000;fill-opacity:1;fill-rule:nonzero;stroke:none;stroke-width:9.14286;stroke-linecap:round;stroke-linejoin:round;stroke-miterlimit:4;stroke-dasharray:none;stroke-dashoffset:0;stroke-opacity:1;paint-order:stroke fill markers"
       id="path35"
       sodipodi:type="arc"
       sodipodi:cx="-1660"
       sodipodi:cy="-880.00012"
       sodipodi:rx="80"
       sodipodi:ry="80"
       sodipodi:start="5.846853"
       sodipodi:end="4.712389"
       sodipodi:arc-type="slice"
       d="m -1587.4954,-913.80958 a 80,80 0 0 1 -19.7569,93.95664 80,80 0 0 1 -95.7317,7.32413 80,80 0 0 1 -33.82,-89.85763 80,80 0 0 1 76.804,-57.61368 v 80 z"
       transform="scale(1,-1)" /><path
       id="path36"
       style="display:inline;opacity:1;vector-effect:none;fill:#000000;fill-opacity:1;fill-rule:nonzero;stroke:none;stroke-width:8;stroke-linecap:round;stroke-linejoin:round;stroke-miterlimit:4;stroke-dasharray:none;stroke-dashoffset:0;stroke-opacity:1;paint-order:stroke fill markers"
       d="m -160,960 v -80 h -90 V 596 c 0,-81.71021 -23.9301,-107.57506 -23.9301,-141.42571 0,-34.67722 18.7566,-50.97915 42.6932,-50.97915 15.4404,0 29.859,16.40489 29.821,26.40486 L -160,439.99994 -82.7268,419.29515 C -94.9939,373.51334 -143.0016,330 -208,330 c -118.9897,0 -182,66.69613 -182,175.25781 V 880 h -50 v 80 z"
       sodipodi:nodetypes="cccssscccsscccc" /><path
       style="display:inline;opacity:1;vector-effect:none;fill:#000000;fill-opacity:1;fill-rule:nonzero;stroke:none;stroke-width:9.14286;stroke-linecap:round;stroke-linejoin:round;stroke-miterlimit:4;stroke-dasharray:none;stroke-dashoffset:0;stroke-opacity:1;paint-order:stroke fill markers"
       id="path37"
       sodipodi:type="arc"
       sodipodi:cx="-160"
       sodipodi:cy="439.99994"
       sodipodi:rx="80"
       sodipodi:ry="80"
       sodipodi:start="6.0213859"
       sodipodi:end="4.712389"
       sodipodi:arc-type="slice"
       d="m -82.725934,419.29441 a 80,80 0 0 1 -32.828446,87.2231 80,80 0 0 1 -93.14653,-3.0493 80,80 0 0 1 -27.0535,-89.18343 A 80,80 0 0 1 -160,359.99994 v 80 z" /><path
       id="path38"
       style="display:inline;vector-effect:none;fill:#000000;fill-opacity:1;fill-rule:nonzero;stroke:none;stroke-width:9.14286;stroke-linecap:round;stroke-linejoin:round;stroke-miterlimit:4;stroke-dasharray:none;stroke-dashoffset:0;stroke-opacity:1;paint-order:stroke fill markers"
       sodipodi:type="arc"
       sodipodi:cx="-1199.5802"
       sodipodi:cy="440"
       sodipodi:rx="80"
       sodipodi:ry="80"
       sodipodi:start="5.5850536"
       sodipodi:end="4.712389"
       sodipodi:arc-type="arc"
       d="m -1138.2966,388.57699 a 80,80 0 0 1 2.1847,100.12392 80,80 0 0 1 -97.2778,23.80371 80,80 0 0 1 -44.2942,-89.81979 A 80,80 0 0 1 -1199.5802,360"
       sodipodi:open="true"
       transform="scale(-1,1)" /><path
       id="path39"
       style="display:inline;vector-effect:none;fill:#000000;fill-opacity:1;fill-rule:nonzero;stroke:none;stroke-width:9.14286;stroke-linecap:round;stroke-linejoin:round;stroke-miterlimit:4;stroke-dasharray:none;stroke-dashoffset:0;stroke-opacity:1;paint-order:stroke fill markers"
       d="M 1829.4961,410 C 1890,410.00025 1910,444 1910,534 c 0,165.82344 -95.0489,301.91075 -199.5801,406 l 60,40 c 109.123,-80.95117 140.0191,-88.25095 163.2277,-74.85148 l 56.7723,-15.14849 v -80 c -25.5213,0 -47.1797,3.47819 -110,43.99997 104.8661,-91.27797 180,-174.79104 180,-314 0,-156 -90.4199,-210 -230.9238,-210 -69.4961,0 -120.1596,22.08545 -150.7796,58.577 L 1740,440 c 18.4321,-10.64177 54.9602,-30.00014 89.4961,-30 z"
       sodipodi:nodetypes="ssccccccssccs" /><path
       id="path40"
       style="display:inline;vector-effect:none;fill:#000000;fill-opacity:1;fill-rule:nonzero;stroke:none;stroke-width:9.14286;stroke-linecap:round;stroke-linejoin:round;stroke-miterlimit:4;stroke-dasharray:none;stroke-dashoffset:0;stroke-opacity:1;paint-order:stroke fill markers"
       sodipodi:type="arc"
       sodipodi:cx="-1740"
       sodipodi:cy="440"
       sodipodi:rx="80"
       sodipodi:ry="80"
       sodipodi:start="5.5850536"
       sodipodi:end="4.712389"
       sodipodi:arc-type="arc"
       d="m -1678.7164,388.57699 a 80,80 0 0 1 2.1847,100.12392 80,80 0 0 1 -97.2778,23.80371 80,80 0 0 1 -44.2942,-89.81979 A 80,80 0 0 1 -1740,360"
       sodipodi:open="true"
       transform="scale(-1,1)" /><path
       d="m 1289.0762,409.99999 c 60.5039,2.5e-4 80.5039,34 80.5039,124 0,165.82344 -95.0489,301.91075 -199.5801,406 l 60,40 c 184.5307,-131.96039 290,-256.61233 290,-440 0,-156 -90.4199,-210 -230.9238,-210 -69.4961,0 -120.1596,22.08545 -150.7796,58.577 l 61.2835,51.423 c 18.4321,-10.64177 54.9602,-30.00014 89.4961,-30 z"
       style="display:inline;vector-effect:none;fill:#000000;fill-opacity:1;fill-rule:nonzero;stroke:none;stroke-width:9.14286;stroke-linecap:round;stroke-linejoin:round;stroke-miterlimit:4;stroke-dasharray:none;stroke-dashoffset:0;stroke-opacity:1;paint-order:stroke fill markers"
       id="path41"
       sodipodi:nodetypes="ssccssccs" /><path
       id="path42"
       style="vector-effect:none;fill:#000000;fill-opacity:1;fill-rule:nonzero;stroke:none;stroke-width:9.14286;stroke-linecap:round;stroke-linejoin:round;stroke-miterlimit:4;stroke-dasharray:none;stroke-dashoffset:0;stroke-opacity:1;paint-order:stroke fill markers"
       d="m 2490,340 v 80 h -40 l -130,460 h 60 v 80 h -240 v -80 h 40 l 152.6094,-540 z"
       sodipodi:nodetypes="ccccccccccc" /><g
       id="g47"
       transform="translate(20)"><path
         id="path989"
         style="display:inline;vector-effect:none;fill:#000000;fill-opacity:1;fill-rule:nonzero;stroke:none;stroke-width:9.14286;stroke-linecap:round;stroke-linejoin:round;stroke-miterlimit:4;stroke-dasharray:none;stroke-dashoffset:0;stroke-opacity:1;paint-order:stroke fill markers"
         d="m 3303.5723,570 c 0,-121.14273 40.7714,-163.99974 96.4277,-164 21.2159,-10e-5 42.9979,20 50,30 l 50,10 60.6218,-35 C 3535.1074,366.80781 3484.6041,329.99953 3380,330 c -132.3176,5.9e-4 -225,94.94539 -225,240"
         sodipodi:nodetypes="cscccsc" /><path
         style="display:inline;vector-effect:none;fill:#000000;fill-opacity:1;fill-rule:nonzero;stroke:none;stroke-width:8;stroke-linecap:round;stroke-linejoin:round;stroke-miterlimit:4;stroke-dasharray:none;stroke-dashoffset:0;stroke-opacity:1;paint-order:stroke fill markers"
         id="path30-2"
         transform="scale(1,-1)"
         sodipodi:type="arc"
         sodipodi:cx="3500"
         sodipodi:cy="-446"
         sodipodi:rx="70"
         sodipodi:ry="70"
         sodipodi:start="1.5707963"
         sodipodi:end="0.52359878"
         sodipodi:arc-type="slice"
         d="m 3500,-376 a 70,70 0 0 1 -67.6148,-51.88267 70,70 0 0 1 32.6148,-78.73911 70,70 0 0 1 84.4975,11.12431 A 70,70 0 0 1 3560.6218,-411 L 3500,-446 Z" /></g><g
       id="g48"><path
         style="display:inline;vector-effect:none;fill:#000000;fill-opacity:1;fill-rule:nonzero;stroke:none;stroke-width:8;stroke-linecap:round;stroke-linejoin:round;stroke-miterlimit:4;stroke-dasharray:none;stroke-dashoffset:0;stroke-opacity:1;paint-order:stroke fill markers"
         d="m 3960,516.14733 c 0,22 -3.3081,41.43777 -4.797,52 L 3940,676 c -12.6469,89.71942 -87.0089,134 -180,134 -90.3869,0 -121.1837,-54 -130,-104 l 70,-12 c 11.2308,17.50564 33,42 63,42 23.573,0 37,-10 37,-40 0,-26.0594 -10,-42.14733 -10,-72.14733"
         id="rect1289"
         inkscape:connector-curvature="0"
         sodipodi:nodetypes="csssccssc" /><path
         style="display:inline;vector-effect:none;fill:#000000;fill-opacity:1;fill-rule:nonzero;stroke:none;stroke-width:8;stroke-linecap:round;stroke-linejoin:round;stroke-miterlimit:4;stroke-dasharray:none;stroke-dashoffset:0;stroke-opacity:1;paint-order:stroke fill markers"
         id="path48"
         transform="scale(-1,1)"
         sodipodi:type="arc"
         sodipodi:cx="-3700"
         sodipodi:cy="694"
         sodipodi:rx="70"
         sodipodi:ry="70"
         sodipodi:start="1.5707963"
         sodipodi:end="0.17453293"
         sodipodi:arc-type="slice"
         d="m -3700,764 a 70,70 0 0 1 -65.7785,-46.05859 70,70 0 0 1 20.7834,-77.56452 70,70 0 0 1 79.9951,-6.99867 70,70 0 0 1 33.9365,72.77715 L -3700,694 Z" /></g><use
       x="0"
       y="0"
       xlink:href="#g48"
       id="use48"
       transform="rotate(180,3875,570)" /><path
       id="path1104"
       d="m 4210,340 v 80 h 50 v 300 h -50 v 80 h 240 v -80 h -50 V 340 Z"
       style="display:inline;vector-effect:none;fill:#000000;fill-opacity:1;fill-rule:nonzero;stroke:none;stroke-width:9.14286;stroke-linecap:round;stroke-linejoin:round;stroke-miterlimit:4;stroke-dasharray:none;stroke-dashoffset:0;stroke-opacity:1;paint-order:stroke fill markers"
       inkscape:connector-curvature="0"
       sodipodi:nodetypes="ccccccccccc" /><path
       id="path49"
       style="display:inline;vector-effect:none;fill:#000000;fill-opacity:1;fill-rule:nonzero;stroke:none;stroke-width:9.14286;stroke-linecap:round;stroke-linejoin:round;stroke-miterlimit:4;stroke-dasharray:none;stroke-dashoffset:0;stroke-opacity:1;paint-order:stroke fill markers"
       d="m 4530,340 v 80 h 50 v 231.74414 l 180,-48.23047 V 720 h -50 v 80 h 240 v -80 h -50 V 486 l -180,48.23047 V 340 Z"
       sodipodi:nodetypes="ccccccccccccccc" /><g
       id="use51"
       transform="matrix(1,0,0,-1,1876.4277,1140)"><path
         id="path51"
         style="display:inline;vector-effect:none;fill:#000000;fill-opacity:1;fill-rule:nonzero;stroke:none;stroke-width:9.14286;stroke-linecap:round;stroke-linejoin:round;stroke-miterlimit:4;stroke-dasharray:none;stroke-dashoffset:0;stroke-opacity:1;paint-order:stroke fill markers"
         d="m 3113.5723,800 v -80 h 50 V 564 c 0,-160 75.4958,-234 216.4277,-234 104.604,0 155.1068,36.80785 180.6211,81 L 3500,446 3450,436 c -7.0021,-9.99999 -28.7841,-30.0001 -50,-30 -55.6562,2.6e-4 -96.4277,26.85739 -96.4277,148 v 166 h 70 v 80 z"
         sodipodi:nodetypes="cccsscccsscccc" /><path
         style="display:inline;vector-effect:none;fill:#000000;fill-opacity:1;fill-rule:nonzero;stroke:none;stroke-width:8;stroke-linecap:round;stroke-linejoin:round;stroke-miterlimit:4;stroke-dasharray:none;stroke-dashoffset:0;stroke-opacity:1;paint-order:stroke fill markers"
         id="path52"
         transform="scale(1,-1)"
         sodipodi:type="arc"
         sodipodi:cx="3500"
         sodipodi:cy="-446"
         sodipodi:rx="70"
         sodipodi:ry="70"
         sodipodi:start="1.5707963"
         sodipodi:end="0.52359878"
         sodipodi:arc-type="slice"
         d="m 3500,-376 a 70,70 0 0 1 -67.6148,-51.88267 70,70 0 0 1 32.6148,-78.73911 70,70 0 0 1 84.4975,11.12431 A 70,70 0 0 1 3560.6218,-411 L 3500,-446 Z" /></g><g
       id="g56"><path
         id="path55"
         style="fill:#000000;fill-opacity:1;stroke-width:2;stroke-linecap:round;stroke-linejoin:round;-inkscape-stroke:none;paint-order:stroke fill markers"
         d="m 5530,340 v 80 h 50 v 156 c 0,159.99968 75.4962,234 216.4277,234 104.6038,0 155.107,-36.80793 180.6211,-81 l -60.6211,-35 -50,10 c -7.0021,9.99997 -28.7841,30.0001 -50,30 C 5760.7717,733.99974 5720,707.14237 5720,586 V 420 h 160 c 30,0 40,50.18582 40,80 v 20 h 90 V 340 Z"
         sodipodi:nodetypes="cccsscccsscsscccc" /><path
         style="display:inline;vector-effect:none;fill:#000000;fill-opacity:1;fill-rule:nonzero;stroke:none;stroke-width:8;stroke-linecap:round;stroke-linejoin:round;stroke-miterlimit:4;stroke-dasharray:none;stroke-dashoffset:0;stroke-opacity:1;paint-order:stroke fill markers"
         id="path54"
         sodipodi:type="arc"
         sodipodi:cx="5916.4277"
         sodipodi:cy="694"
         sodipodi:rx="70"
         sodipodi:ry="70"
         sodipodi:start="1.5707963"
         sodipodi:end="0.52359878"
         sodipodi:arc-type="slice"
         d="m 5916.4277,764 a 70,70 0 0 1 -67.6148,-51.88267 70,70 0 0 1 32.6148,-78.73911 70,70 0 0 1 84.4975,11.12431 A 70,70 0 0 1 5977.0495,729 l -60.6218,-35 z" /></g><use
       x="0"
       y="0"
       xlink:href="#use51"
       id="use56"
       transform="matrix(-1,0,0,1,11530,0)" /><use
       x="0"
       y="0"
       xlink:href="#g56"
       id="use57"
       transform="matrix(-1,0,0,1,12610,0)" /><use
       x="0"
       y="0"
       xlink:href="#use51"
       id="use58"
       transform="matrix(1,0,0,-1,2130,1150)" /><g
       id="use59"
       transform="matrix(-1,0,0,1,13690,0)"><path
         id="path59"
         style="fill:#000000;fill-opacity:1;stroke-width:2;stroke-linecap:round;stroke-linejoin:round;-inkscape-stroke:none;paint-order:stroke fill markers"
         d="m 6010,340 v 180 h -90 v -20 c 0,-29.81412 -10,-80 -40,-80 h -90 c -20.1042,0 -60.0829,-1.2638 -80,-4 102.6665,48.98141 160,184.09527 160,290 0,39.99992 -2.1421,68.15759 -5,94 h -165 c 8.8003,-34.33004 13,-74 13,-124 0,-130 -33,-210 -133,-266 v -70 z"
         sodipodi:nodetypes="cccssscsccsccc" /></g><use
       x="0"
       y="0"
       xlink:href="#use51"
       id="use61"
       transform="rotate(180,6855,575)" /><path
       style="display:inline;vector-effect:none;fill:#000000;fill-opacity:1;fill-rule:nonzero;stroke:none;stroke-width:9.14286;stroke-linecap:round;stroke-linejoin:round;stroke-miterlimit:4;stroke-dasharray:none;stroke-dashoffset:0;stroke-opacity:1;paint-order:stroke fill markers"
       d="m 9040,330 c -119.4174,0 -239.5826,106 -239.5826,250 0,156 99.5826,229.99939 239.5826,230 140,6.1e-4 239.5848,-74 239.5848,-230 0,-144 -120.1674,-250 -239.5848,-250 z m 0,80 c 49.4174,0.43676 91.0134,66 91.0134,170 0,125.99821 -31.0134,150.00026 -91.0134,150 -60,-2.6e-4 -91.0112,-24 -91.0112,-150 0,-104 41.5938,-170.43676 91.0112,-170 z"
       id="path914"
       inkscape:connector-curvature="0"
       sodipodi:nodetypes="zszszzszsz" /><path
       style="display:inline;vector-effect:none;fill:#000000;fill-opacity:1;fill-rule:nonzero;stroke:none;stroke-width:8;stroke-linecap:round;stroke-linejoin:round;stroke-miterlimit:4;stroke-dasharray:none;stroke-dashoffset:0;stroke-opacity:1;paint-order:stroke fill markers"
       d="m 9360,336 v 80 h 46.9551 l 167.0097,380 H 9680 L 9847.01,416 H 9900 v -80 h -210 v 80 h 70 l -79.1113,180 c -7.3251,16.66657 -17.1575,42.44362 -21.9746,60 -4.7566,-17.57289 -14.6495,-43.33343 -21.9746,-60 L 9557.8281,416 H 9640 v -80 z"
       id="rect1364"
       inkscape:connector-curvature="0"
       sodipodi:nodetypes="cccccccccccscscccc" /><path
       style="display:inline;vector-effect:none;fill:#000000;fill-opacity:1;fill-rule:nonzero;stroke:none;stroke-width:8;stroke-linecap:round;stroke-linejoin:round;stroke-miterlimit:4;stroke-dasharray:none;stroke-dashoffset:0;stroke-opacity:1;paint-order:stroke fill markers"
       d="m 10520,796 v -80 h -46.955 l -167.01,-380 H 10200 l -167.01,380 H 9980 v 80 h 210 v -80 h -70 l 79.111,-180 c 7.325,-16.66657 17.158,-42.44362 21.975,-60 4.757,17.57289 14.649,43.33343 21.975,60 l 79.111,180 H 10240 v 80 z"
       id="path61"
       inkscape:connector-curvature="0"
       sodipodi:nodetypes="cccccccccccscscccc" /></g></svg>
